# xmcd CD database file
#
# Track frame offsets:
#	150
#	17082
#	38733
#	63177
#
# Disc length: 1117 seconds
#
# Revision: 2
# Processed by: cddbd v1.5.1PL0 Copyright (c) Steve Scherf et al.
# Submitted via: CDex 1.51
#
DISCID=27045b04
DTITLE=Lysette - Enjoy
DYEAR=2002
DGENRE=Rock
TTITLE0=eternally
TTITLE1=laras song
TTITLE2=enjoy
TTITLE3=laras song unplugged
EXTD=from the forthcoming Sony Records release YEAR: 2002
EXTT0=
EXTT1=
EXTT2=
EXTT3=
PLAYORDER=
